{
    "asset" : {
        "generator" : "Khronos glTF Blender I/O v1.2.75",
        "version" : "2.0"
    },
    "scene" : 0,
    "scenes" : [
        {
            "name" : "Scene",
            "nodes" : [
                0,
                1,
                2
            ]
        }
    ],
    "nodes" : [
        {
            "name" : "Light",
            "rotation" : [
                0.16907575726509094,
                0.27217137813568115,
                0.7558803558349609,
                0.570947527885437
            ],
            "translation" : [
                4.076245307922363,
                1.0054539442062378,
                5.903861999511719
            ]
        },
        {
            "camera" : 0,
            "name" : "Camera",
            "rotation" : [
                0.483536034822464,
                0.20870360732078552,
                0.33687159419059753,
                0.7804827094078064
            ],
            "translation" : [
                7.358891487121582,
                -6.925790786743164,
                4.958309173583984
            ]
        },
        {
            "mesh" : 0,
            "name" : "lines194",
            "rotation" : [
                -0.7071067690849304,
                0,
                0,
                0.7071067690849304
            ],
            "scale" : [
                0.0020000000949949026,
                0.0020000000949949026,
                0.0020000000949949026
            ],
            "translation" : [
                -0.5,
                0.5,
                0.5
            ]
        }
    ],
    "cameras" : [
        {
            "name" : "Camera",
            "perspective" : {
                "yfov" : 0.39959652046304894,
                "zfar" : 100,
                "znear" : 0.10000000149011612
            },
            "type" : "perspective"
        }
    ],
    "materials" : [
        {
            "doubleSided" : true,
            "emissiveFactor" : [
                0,
                0,
                0
            ],
            "name" : "Default OBJ",
            "pbrMetallicRoughness" : {
                "baseColorFactor" : [
                    0.800000011920929,
                    0.800000011920929,
                    0.800000011920929,
                    1
                ],
                "metallicFactor" : 0,
                "roughnessFactor" : 0.5
            }
        }
    ],
    "meshes" : [
        {
            "name" : "lines194",
            "primitives" : [
                {
                    "attributes" : {
                        "POSITION" : 0,
                        "NORMAL" : 1,
                        "TEXCOORD_0" : 2
                    },
                    "indices" : 3,
                    "material" : 0
                }
            ]
        }
    ],
    "accessors" : [
        {
            "bufferView" : 0,
            "componentType" : 5126,
            "count" : 2583,
            "max" : [
                565.4562377929688,
                426.5205383300781,
                54.5
            ],
            "min" : [
                1.3700770139694214,
                7.916952133178711,
                -1.1717050075531006
            ],
            "type" : "VEC3"
        },
        {
            "bufferView" : 1,
            "componentType" : 5126,
            "count" : 2583,
            "type" : "VEC3"
        },
        {
            "bufferView" : 2,
            "componentType" : 5126,
            "count" : 2583,
            "type" : "VEC2"
        },
        {
            "bufferView" : 3,
            "componentType" : 5123,
            "count" : 14751,
            "type" : "SCALAR"
        }
    ],
    "bufferViews" : [
        {
            "buffer" : 0,
            "byteLength" : 30996,
            "byteOffset" : 0
        },
        {
            "buffer" : 0,
            "byteLength" : 30996,
            "byteOffset" : 30996
        },
        {
            "buffer" : 0,
            "byteLength" : 20664,
            "byteOffset" : 61992
        },
        {
            "buffer" : 0,
            "byteLength" : 29502,
            "byteOffset" : 82656
        }
    ],
    "buffers" : [
        {
            "byteLength" : 112160,
            "uri" : "test_rgl_2obs.bin"
        }
    ]
}
