{
    "asset" : {
        "generator" : "Khronos glTF Blender I/O v1.2.75",
        "version" : "2.0"
    },
    "scene" : 0,
    "scenes" : [
        {
            "name" : "Scene",
            "nodes" : [
                0,
                1,
                2,
                3,
                4,
                5,
                6,
                7,
                8
            ]
        }
    ],
    "nodes" : [
        {
            "name" : "Light",
            "rotation" : [
                0.16907575726509094,
                0.7558803558349609,
                -0.27217137813568115,
                0.570947527885437
            ],
            "translation" : [
                4.076245307922363,
                5.903861999511719,
                -1.0054539442062378
            ]
        },
        {
            "name" : "Camera",
            "rotation" : [
                0.483536034822464,
                0.33687159419059753,
                -0.20870360732078552,
                0.7804827094078064
            ],
            "translation" : [
                7.358891487121582,
                4.958309173583984,
                6.925790786743164
            ]
        },
        {
            "mesh" : 0,
            "name" : "sphere23",
            "rotation" : [
                0.7071068286895752,
                0,
                0,
                0.7071067094802856
            ]
        },
        {
            "mesh" : 1,
            "name" : "segments28",
            "rotation" : [
                0.7071068286895752,
                0,
                0,
                0.7071067094802856
            ]
        },
        {
            "mesh" : 2,
            "name" : "segments30",
            "rotation" : [
                0.7071068286895752,
                0,
                0,
                0.7071067094802856
            ]
        },
        {
            "mesh" : 3,
            "name" : "segments32",
            "rotation" : [
                0.7071068286895752,
                0,
                0,
                0.7071067094802856
            ]
        },
        {
            "mesh" : 4,
            "name" : "segments34",
            "rotation" : [
                0.7071068286895752,
                0,
                0,
                0.7071067094802856
            ]
        },
        {
            "mesh" : 5,
            "name" : "test_rgl",
            "translation" : [
                -5,
                0,
                5
            ]
        },
        {
            "mesh" : 6,
            "name" : "Test Rgl"
        }
    ],
    "materials" : [
        {
            "doubleSided" : true,
            "emissiveFactor" : [
                0,
                0,
                0
            ],
            "name" : "Default OBJ",
            "pbrMetallicRoughness" : {
                "baseColorFactor" : [
                    0.800000011920929,
                    0.800000011920929,
                    0.800000011920929,
                    1
                ],
                "metallicFactor" : 0,
                "roughnessFactor" : 0.5
            }
        }
    ],
    "meshes" : [
        {
            "name" : "sphere23",
            "primitives" : [
                {
                    "attributes" : {
                        "POSITION" : 0,
                        "NORMAL" : 1
                    },
                    "indices" : 2,
                    "material" : 0
                }
            ]
        },
        {
            "name" : "segments28",
            "primitives" : [
                {
                    "attributes" : {
                        "POSITION" : 3,
                        "NORMAL" : 4
                    },
                    "indices" : 5,
                    "material" : 0
                }
            ]
        },
        {
            "name" : "segments30",
            "primitives" : [
                {
                    "attributes" : {
                        "POSITION" : 6,
                        "NORMAL" : 7
                    },
                    "indices" : 8,
                    "material" : 0
                }
            ]
        },
        {
            "name" : "segments32",
            "primitives" : [
                {
                    "attributes" : {
                        "POSITION" : 9,
                        "NORMAL" : 10
                    },
                    "indices" : 11,
                    "material" : 0
                }
            ]
        },
        {
            "name" : "segments34",
            "primitives" : [
                {
                    "attributes" : {
                        "POSITION" : 12,
                        "NORMAL" : 13
                    },
                    "indices" : 14,
                    "material" : 0
                }
            ]
        },
        {
            "name" : "test_rgl",
            "primitives" : [
                {
                    "attributes" : {
                        "POSITION" : 15,
                        "NORMAL" : 16,
                        "COLOR_0" : 17
                    },
                    "indices" : 18
                }
            ]
        },
        {
            "name" : "Test Rgl",
            "primitives" : [
                {
                    "attributes" : {
                        "POSITION" : 19,
                        "NORMAL" : 20
                    },
                    "indices" : 21
                }
            ]
        }
    ],
    "accessors" : [
        {
            "bufferView" : 0,
            "componentType" : 5126,
            "count" : 96300,
            "max" : [
                8.111207008361816,
                7.111207008361816,
                -1.7887930870056152
            ],
            "min" : [
                4.0887932777404785,
                0.78879314661026,
                -4.611207008361816
            ],
            "type" : "VEC3"
        },
        {
            "bufferView" : 1,
            "componentType" : 5126,
            "count" : 96300,
            "type" : "VEC3"
        },
        {
            "bufferView" : 2,
            "componentType" : 5125,
            "count" : 576000,
            "type" : "SCALAR"
        },
        {
            "bufferView" : 3,
            "componentType" : 5126,
            "count" : 210,
            "max" : [
                8.020393371582031,
                0.6280435919761658,
                -1.7535291910171509
            ],
            "min" : [
                4.979606628417969,
                0.43284881114959717,
                -1.8607925176620483
            ],
            "type" : "VEC3"
        },
        {
            "bufferView" : 4,
            "componentType" : 5126,
            "count" : 210,
            "type" : "VEC3"
        },
        {
            "bufferView" : 5,
            "componentType" : 5123,
            "count" : 1200,
            "type" : "SCALAR"
        },
        {
            "bufferView" : 6,
            "componentType" : 5126,
            "count" : 294,
            "max" : [
                4.080993175506592,
                0.6280435919761658,
                -1.9796068668365479
            ],
            "min" : [
                3.9412214756011963,
                0.4299108386039734,
                -4.520393371582031
            ],
            "type" : "VEC3"
        },
        {
            "bufferView" : 7,
            "componentType" : 5126,
            "count" : 294,
            "type" : "VEC3"
        },
        {
            "bufferView" : 8,
            "componentType" : 5123,
            "count" : 1680,
            "type" : "SCALAR"
        },
        {
            "bufferView" : 9,
            "componentType" : 5126,
            "count" : 336,
            "max" : [
                4.080993175506592,
                7.020393371582031,
                -1.7554512023925781
            ],
            "min" : [
                3.9473178386688232,
                0.9796068072319031,
                -1.8607925176620483
            ],
            "type" : "VEC3"
        },
        {
            "bufferView" : 10,
            "componentType" : 5126,
            "count" : 336,
            "type" : "VEC3"
        },
        {
            "bufferView" : 11,
            "componentType" : 5123,
            "count" : 1920,
            "type" : "SCALAR"
        },
        {
            "bufferView" : 12,
            "componentType" : 5126,
            "count" : 504,
            "max" : [
                8.15979290008545,
                7.312743186950684,
                -1.820006251335144
            ],
            "min" : [
                4.040206432342529,
                0.5872572064399719,
                -4.579994201660156
            ],
            "type" : "VEC3"
        },
        {
            "bufferView" : 13,
            "componentType" : 5126,
            "count" : 504,
            "type" : "VEC3"
        },
        {
            "bufferView" : 14,
            "componentType" : 5123,
            "count" : 2880,
            "type" : "SCALAR"
        },
        {
            "bufferView" : 15,
            "componentType" : 5126,
            "count" : 580931,
            "max" : [
                8.15979290008545,
                7.312743663787842,
                -1.7535299062728882
            ],
            "min" : [
                3.9412219524383545,
                0.4299103915691376,
                -4.611207008361816
            ],
            "type" : "VEC3"
        },
        {
            "bufferView" : 16,
            "componentType" : 5126,
            "count" : 580931,
            "type" : "VEC3"
        },
        {
            "bufferView" : 17,
            "componentType" : 5126,
            "count" : 580931,
            "type" : "VEC4"
        },
        {
            "bufferView" : 18,
            "componentType" : 5125,
            "count" : 583680,
            "type" : "SCALAR"
        },
        {
            "bufferView" : 19,
            "componentType" : 5126,
            "count" : 558539,
            "max" : [
                8.15979290008545,
                7.312743663787842,
                -1.7535299062728882
            ],
            "min" : [
                3.9412219524383545,
                0.4299103915691376,
                -4.611207008361816
            ],
            "type" : "VEC3"
        },
        {
            "bufferView" : 20,
            "componentType" : 5126,
            "count" : 558539,
            "type" : "VEC3"
        },
        {
            "bufferView" : 21,
            "componentType" : 5125,
            "count" : 560640,
            "type" : "SCALAR"
        }
    ],
    "bufferViews" : [
        {
            "buffer" : 0,
            "byteLength" : 1155600,
            "byteOffset" : 0
        },
        {
            "buffer" : 0,
            "byteLength" : 1155600,
            "byteOffset" : 1155600
        },
        {
            "buffer" : 0,
            "byteLength" : 2304000,
            "byteOffset" : 2311200
        },
        {
            "buffer" : 0,
            "byteLength" : 2520,
            "byteOffset" : 4615200
        },
        {
            "buffer" : 0,
            "byteLength" : 2520,
            "byteOffset" : 4617720
        },
        {
            "buffer" : 0,
            "byteLength" : 2400,
            "byteOffset" : 4620240
        },
        {
            "buffer" : 0,
            "byteLength" : 3528,
            "byteOffset" : 4622640
        },
        {
            "buffer" : 0,
            "byteLength" : 3528,
            "byteOffset" : 4626168
        },
        {
            "buffer" : 0,
            "byteLength" : 3360,
            "byteOffset" : 4629696
        },
        {
            "buffer" : 0,
            "byteLength" : 4032,
            "byteOffset" : 4633056
        },
        {
            "buffer" : 0,
            "byteLength" : 4032,
            "byteOffset" : 4637088
        },
        {
            "buffer" : 0,
            "byteLength" : 3840,
            "byteOffset" : 4641120
        },
        {
            "buffer" : 0,
            "byteLength" : 6048,
            "byteOffset" : 4644960
        },
        {
            "buffer" : 0,
            "byteLength" : 6048,
            "byteOffset" : 4651008
        },
        {
            "buffer" : 0,
            "byteLength" : 5760,
            "byteOffset" : 4657056
        },
        {
            "buffer" : 0,
            "byteLength" : 6971172,
            "byteOffset" : 4662816
        },
        {
            "buffer" : 0,
            "byteLength" : 6971172,
            "byteOffset" : 11633988
        },
        {
            "buffer" : 0,
            "byteLength" : 9294896,
            "byteOffset" : 18605160
        },
        {
            "buffer" : 0,
            "byteLength" : 2334720,
            "byteOffset" : 27900056
        },
        {
            "buffer" : 0,
            "byteLength" : 6702468,
            "byteOffset" : 30234776
        },
        {
            "buffer" : 0,
            "byteLength" : 6702468,
            "byteOffset" : 36937244
        },
        {
            "buffer" : 0,
            "byteLength" : 2242560,
            "byteOffset" : 43639712
        }
    ],
    "buffers" : [
        {
            "byteLength" : 45882272,
            "uri" : "test_rgl.bin"
        }
    ]
}
