{
    "asset" : {
        "generator" : "Khronos glTF Blender I/O v1.2.75",
        "version" : "2.0"
    },
    "scene" : 0,
    "scenes" : [
        {
            "name" : "Scene",
            "nodes" : [
                0,
                1,
                2
            ]
        }
    ],
    "nodes" : [
        {
            "name" : "Light",
            "rotation" : [
                0.16907575726509094,
                0.27217137813568115,
                0.7558803558349609,
                0.570947527885437
            ],
            "translation" : [
                4.076245307922363,
                1.0054539442062378,
                5.903861999511719
            ]
        },
        {
            "camera" : 0,
            "name" : "Camera",
            "rotation" : [
                0.483536034822464,
                0.20870360732078552,
                0.33687159419059753,
                0.7804827094078064
            ],
            "translation" : [
                7.358891487121582,
                -6.925790786743164,
                4.958309173583984
            ]
        },
        {
            "mesh" : 0,
            "name" : "test_rgl",
            "scale" : [
                0.0009153163991868496,
                0.0009153163991868496,
                0.0009153163991868496
            ],
            "translation" : [
                0,
                -0.20686042308807373,
                0.20147576928138733
            ]
        }
    ],
    "cameras" : [
        {
            "name" : "Camera",
            "perspective" : {
                "yfov" : 0.39959652046304894,
                "zfar" : 100,
                "znear" : 0.10000000149011612
            },
            "type" : "perspective"
        }
    ],
    "meshes" : [
        {
            "name" : "test_rgl.001",
            "primitives" : [
                {
                    "attributes" : {
                        "POSITION" : 0,
                        "NORMAL" : 1,
                        "COLOR_0" : 2
                    },
                    "indices" : 3
                }
            ]
        }
    ],
    "accessors" : [
        {
            "bufferView" : 0,
            "componentType" : 5126,
            "count" : 583107,
            "max" : [
                565.7342529296875,
                428.04022216796875,
                104
            ],
            "min" : [
                1.3700770139694214,
                7.916952133178711,
                -3
            ],
            "type" : "VEC3"
        },
        {
            "bufferView" : 1,
            "componentType" : 5126,
            "count" : 583107,
            "type" : "VEC3"
        },
        {
            "bufferView" : 2,
            "componentType" : 5126,
            "count" : 583107,
            "type" : "VEC4"
        },
        {
            "bufferView" : 3,
            "componentType" : 5125,
            "count" : 587199,
            "type" : "SCALAR"
        }
    ],
    "bufferViews" : [
        {
            "buffer" : 0,
            "byteLength" : 6997284,
            "byteOffset" : 0
        },
        {
            "buffer" : 0,
            "byteLength" : 6997284,
            "byteOffset" : 6997284
        },
        {
            "buffer" : 0,
            "byteLength" : 9329712,
            "byteOffset" : 13994568
        },
        {
            "buffer" : 0,
            "byteLength" : 2348796,
            "byteOffset" : 23324280
        }
    ],
    "buffers" : [
        {
            "byteLength" : 25673076,
            "uri" : "test_ply.bin"
        }
    ]
}
