{
    "asset" : {
        "generator" : "Khronos glTF Blender I/O v1.2.75",
        "version" : "2.0"
    },
    "scene" : 0,
    "scenes" : [
        {
            "name" : "Scene",
            "nodes" : [
                0
            ]
        }
    ],
    "nodes" : [
        {
            "mesh" : 0,
            "name" : "test_rgl",
            "rotation" : [
                -0.7071067690849304,
                0,
                0,
                0.7071067690849304
            ],
            "scale" : [
                0.0020000000949949026,
                0.0020000000949949026,
                0.0020000000949949026
            ],
            "translation" : [
                -0.5,
                0.5,
                0.5
            ]
        }
    ],
    "materials" : [
        {
            "doubleSided" : true,
            "emissiveFactor" : [
                0,
                0,
                0
            ],
            "name" : "Default OBJ",
            "pbrMetallicRoughness" : {
                "baseColorFactor" : [
                    0.800000011920929,
                    0.800000011920929,
                    0.800000011920929,
                    1
                ],
                "metallicFactor" : 0,
                "roughnessFactor" : 0.5
            }
        }
    ],
    "meshes" : [
        {
            "name" : "test_rgl",
            "primitives" : [
                {
                    "attributes" : {
                        "POSITION" : 0,
                        "NORMAL" : 1,
                        "TEXCOORD_0" : 2
                    },
                    "indices" : 3,
                    "material" : 0
                }
            ]
        }
    ],
    "accessors" : [
        {
            "bufferView" : 0,
            "componentType" : 5126,
            "count" : 98359,
            "max" : [
                565.7342529296875,
                428.04022216796875,
                104
            ],
            "min" : [
                1.3700770139694214,
                7.916952133178711,
                -3
            ],
            "type" : "VEC3"
        },
        {
            "bufferView" : 1,
            "componentType" : 5126,
            "count" : 98359,
            "type" : "VEC3"
        },
        {
            "bufferView" : 2,
            "componentType" : 5126,
            "count" : 98359,
            "type" : "VEC2"
        },
        {
            "bufferView" : 3,
            "componentType" : 5125,
            "count" : 587199,
            "type" : "SCALAR"
        }
    ],
    "bufferViews" : [
        {
            "buffer" : 0,
            "byteLength" : 1180308,
            "byteOffset" : 0
        },
        {
            "buffer" : 0,
            "byteLength" : 1180308,
            "byteOffset" : 1180308
        },
        {
            "buffer" : 0,
            "byteLength" : 786872,
            "byteOffset" : 2360616
        },
        {
            "buffer" : 0,
            "byteLength" : 2348796,
            "byteOffset" : 3147488
        }
    ],
    "buffers" : [
        {
            "byteLength" : 5496284,
            "uri" : "test_rgl_one_piece.bin"
        }
    ]
}
